<?xml version="1.0" encoding="iso-8859-1"?>
<!-- Generator: Adobe Illustrator 19.2.1, SVG Export Plug-In . SVG Version: 6.00 Build 0)  -->
<svg version="1.1" xmlns="http://www.w3.org/2000/svg" xmlns:xlink="http://www.w3.org/1999/xlink" x="0px" y="0px"
	 viewBox="0 0 1137.766 942.765" style="enable-background:new 0 0 1137.766 942.765;" xml:space="preserve">
<g id="Yoga">
	<g>
		<g>
			<path style="fill:#FFFFFF;" d="M255.418,860.393"/>
			<path style="fill:#B8D7F4;" d="M1041.026,474.028c0,6.64-0.13,13.22-0.39,19.74c-0.01,0.15-0.02,0.3-0.02,0.439
				c-0.31,7.42-0.78,14.771-1.42,22.04c-0.17,2.07-0.37,4.13-0.57,6.18c-9.53,94.69-46.79,176.5-101.71,242.12
				c-16.16,19.32-33.85,37.23-52.81,53.64c-8.45,7.34-17.16,14.36-26.1,21.08c-7.44,5.61-15.05,11-22.81,16.18
				c-198.52,132.6-493.18,124.59-663.02-96.39c-66.16-86.07-95.38-181.89-95.21-275.66c0.03-21.43,1.6-42.75,4.62-63.82
				c25.81-180.51,157.59-342.9,338.75-398.88c68.9-21.29,144.95-27.19,225.02-12.84c14.89,2.67,29.52,6.02,43.88,10.04
				C893.236,74.838,1041.026,263.198,1041.026,474.028z"/>
		</g>
		<g>
			<path style="fill:#FFE2C5;" d="M104.338,470.638c-4.006-7.458-13.141-11.233-16.665-18.93
				c-4.076-8.901,0.818-19.255,0.162-29.022c-14.156-7.427-29.327-12.916-44.957-16.267L29.92,441.825
				c7.884-1.843,14.291-8.85,15.424-16.867c4.983,0.998,9.85,2.568,14.476,4.671c1.168,0.531,2.399,1.17,2.976,2.315
				c0.507,1.005,0.403,2.197,0.288,3.317c-0.857,8.313-1.715,16.627-2.572,24.94c-0.132,1.277-0.295,2.633-1.103,3.631
				c-1.091,1.347-2.999,1.632-4.722,1.82c-6.135,0.672-12.269,1.343-18.404,2.015c-0.757,0.083-1.607,0.14-2.195-0.344
				c-0.698-0.575-0.698-1.624-0.639-2.526c0.367-5.573,0.734-11.145,1.1-16.718c-10.613,8.74-21.225,17.48-31.838,26.22
				c-1.706,1.405-3.558,3.031-2.294,5.983c0.46,1.074,1.222,1.991,2.121,2.738c8.026,6.667,16.053,13.333,24.079,20
				c0.446,0.37,0.915,0.752,1.481,0.875c0.819,0.178,1.642-0.222,2.385-0.609c7.421-3.866,14.841-7.733,22.262-11.599
				c7.206-3.754,14.662-7.583,22.763-8.216c12.233-0.955,23.693,5.459,34.281,11.659c3.123-5.448,3.698-12.289,1.528-18.182
				L104.338,470.638z"/>
			<path style="fill:#FFE2C5;" d="M1036.946,497.199c5.399-6.521,15.098-8.421,20.072-15.271c5.751-7.922,2.995-19.038,5.565-28.484
				c15.343-4.49,31.298-6.879,47.283-7.08l5.719,37.266c-7.365-3.362-12.265-11.495-11.794-19.578
				c-5.082-0.004-10.163,0.575-15.113,1.724c-1.249,0.29-2.582,0.674-3.374,1.683c-0.695,0.886-0.828,2.074-0.936,3.195
				c-0.799,8.319-1.598,16.638-2.397,24.957c-0.123,1.278-0.23,2.64,0.365,3.777c0.804,1.536,2.618,2.191,4.271,2.716
				c5.882,1.868,11.763,3.737,17.645,5.605c0.726,0.231,1.547,0.454,2.219,0.095c0.798-0.426,1.005-1.455,1.124-2.351
				c0.74-5.535,1.479-11.071,2.218-16.606c8.68,10.661,17.361,21.323,26.041,31.984c1.395,1.714,2.891,3.674,1.069,6.318
				c-0.663,0.962-1.591,1.711-2.619,2.266c-9.183,4.953-18.367,9.905-27.55,14.858c-0.51,0.275-1.045,0.557-1.624,0.566
				c-0.838,0.013-1.566-0.541-2.218-1.067c-6.512-5.254-13.024-10.508-19.537-15.762c-6.323-5.102-12.879-10.326-20.695-12.544
				c-11.804-3.349-24.304,0.679-35.907,4.669c-1.988-5.957-1.202-12.777,2.088-18.126L1036.946,497.199z"/>
			<path style="fill:#BF6079;" d="M1039.245,490.623l-129.37,46.869L766.852,275.226c-11.361-20.833-32.938-34.058-56.658-34.727
				l-251.364-0.003c-51.145-1.442-72.587,19.689-96.128,65.117c-0.539,1.039-1.072,2.093-1.601,3.162
				C319.891,392.136,253.32,521.467,239.604,528.76c-13.716,7.294-140.221-70.254-140.221-70.254l-11.133,33.531
				c0,0,154.72,89.883,159.691,83.451c4.501-5.825,167.606-212.327,180.061-262.397l8.596,27.81
				c-4.277,9.966-20.18,70.374-5.825,85.659c14.355,15.286,43.23,35.481,45.895,52.2c2.665,16.719,37.031,184.679,8.229,204.326
				c-28.802,19.647,200.815,0.948,200.815,0.948s-11.898-169.079-10.811-195.789c1.796-44.121,35.808-116.075,35.808-116.075
				s7.467-13.897,16.394-32.468l151.906,236.899c4.595,7.166,13.721,9.922,21.515,6.498l149.022-65.472L1039.245,490.623z"/>
			<path style="fill:#FFE2C5;" d="M529.86,147.838c0,0,24.727,61.566-2.727,76.368c-27.454,14.802-83.443,16.297-83.443,16.297
				s-5.419,15.122,3.267,25.729s102.559,124.524,111.629,131.273c9.07,6.749,158.524-150.482,151.383-157.039
				c-7.141-6.557-94.707-9.432-98.852-24.783c-4.374-16.199,17.637-118.399,17.637-118.399L529.86,147.838z"/>
			<path style="fill:#DDB28A;" d="M531.885,153.397l7.51,26.566c0,0,82.649-46.1,87.706-68.442S531.885,153.397,531.885,153.397z"/>
			<path style="fill:#FFE2C5;" d="M430.056,54.808c0.47,1.21,0.94,2.42,1.42,3.63c0.65,1.76,1.3,3.51,1.96,5.25L430.056,54.808z"/>
			<path style="fill:#FFE2C5;" d="M689.236,17.898c-1.48,3.23-3.04,6.4-4.65,9.5c-15.39,29.69-34.74,57.32-57.36,81.95
				c-0.42,0.47-0.85,0.93-1.28,1.39c-2.19,2.37-4.42,4.72-6.68,7.03c-20.83,21.33-46.39,41.1-76.16,42.81
				c-3,0.17-5.98,0.15-8.94-0.04c-0.09-0.01-0.18-0.01-0.27-0.02c-26.19-1.84-50.61-17.65-67.57-38.1
				c-15.58-18.79-25.89-41.17-34.85-63.98c-4.55-12.33-8.75-24.99-11.14-37.74c68.9-21.29,144.95-27.19,225.02-12.84
				C660.246,10.528,674.876,13.878,689.236,17.898z"/>
			<path style="fill:#E0A39A;" d="M492.35,102.055c-0.08-0.281-0.524,0.14-0.307,0.336s0.559,0.063,0.814-0.079
				c6.807-3.803,12.737-9.165,17.205-15.555c1.458-2.086,3.426-4.581,5.917-4.058c3.073,0.646,3.822,5.393,6.89,6.065
				c2.347,0.514,4.296-1.657,6.226-3.087c4.716-3.492,8.945-4.433,14.373-2.202c5.428,2.231,12.623,7.402,17.977,9.803
				c5.112,2.292,10.739,3.426,16.34,3.293c-9.248,7.752-17.808,16.555-28.425,22.291s-24.157,7.921-34.576,1.832
				c-7.865-4.597-13.105-13.338-21.713-16.318c-1.021-0.353-2.159-1.827-1.123-2.136L492.35,102.055z"/>
			<g>
				<path style="fill:#C98983;" d="M506.918,104.158c0,0,0.207-0.01,0.596-0.029c0.392,0.006,0.952-0.081,1.641-0.181
					c0.698-0.129,1.527-0.323,2.47-0.613c0.944-0.283,1.991-0.663,3.172-1.048c1.179-0.388,2.484-0.821,3.978-1.062
					c1.479-0.246,3.205-0.329,4.931,0.202c0.867,0.253,1.58,0.601,2.181,0.748c0.634,0.15,0.924,0.135,1.438-0.058
					c0.528-0.19,1.211-0.68,2.117-1.055l0.56-0.251c0.201-0.083,0.454-0.159,0.68-0.237l0.7-0.227l0.672-0.153
					c1.798-0.374,3.594-0.392,5.281-0.251c1.693,0.125,3.288,0.438,4.807,0.694c1.519,0.253,2.952,0.546,4.306,0.727
					c1.342,0.16,2.642,0.276,3.802,0.253c2.365-0.049,4.35-0.475,5.717-0.869c0.683-0.2,1.22-0.38,1.584-0.51
					c0.364-0.134,0.559-0.205,0.559-0.205s-0.166,0.125-0.478,0.358c-0.322,0.217-0.789,0.558-1.433,0.908
					c-1.273,0.717-3.232,1.609-5.782,2.033c-1.291,0.226-2.67,0.303-4.142,0.265c-1.46-0.038-2.976-0.164-4.505-0.344
					c-1.53-0.175-3.086-0.32-4.621-0.405c-1.534-0.066-3.054-0.03-4.472,0.279l-0.532,0.106l-0.474,0.143
					c-0.163,0.052-0.308,0.078-0.487,0.147l-0.565,0.239c-0.625,0.215-1.284,0.692-2.277,1.064c-0.249,0.091-0.51,0.169-0.804,0.228
					l-0.254,0.043l-0.154,0.018c-0.203,0.019-0.315,0.021-0.473,0.019c-0.589-0.015-1.125-0.14-1.581-0.295
					c-0.918-0.31-1.598-0.706-2.201-0.912c-1.211-0.438-2.533-0.565-3.846-0.486c-1.311,0.088-2.603,0.302-3.813,0.508
					c-1.206,0.223-2.347,0.403-3.367,0.506c-1.016,0.128-1.926,0.116-2.661,0.085c-0.745-0.049-1.319-0.141-1.69-0.24
					C507.12,104.207,506.918,104.158,506.918,104.158z"/>
			</g>
			<path style="fill:#BF6079;" d="M649.438,674.36c0,0,293.163,4.082,288.477,77.225s-15.577,69.46-179.093,67.897
				S497.68,771.483,497.68,771.483S540.363,656.57,649.438,674.36z"/>
			<path style="fill:#FFE2C5;" d="M662.28,848.925c33.435,4.287,67.307,8.577,100.743,4.298c10.935-1.399,21.788-3.713,32.808-4.012
				c25.482-0.692,49.886,9.34,73.395,19.195c5.989-4.979,4.722-15.045-0.313-20.987c-5.035-5.941-12.589-8.971-19.568-12.426
				c-15.053-7.451-28.653-17.823-39.822-30.368c-7.114-7.991-13.322-16.921-21.698-23.578c-8.376-6.657-19.759-10.802-29.87-7.305
				c-10.653,3.684-17.012,14.56-26.52,20.614c-8.038,5.118-17.823,6.491-27.269,7.746c-19.552,2.596-39.105,5.193-58.657,7.789
				c-2.898,0.385-6.367,1.224-7.238,4.015c-0.629,2.014,0.451,4.128,1.541,5.934c6.211,10.292,13.942,19.665,22.865,27.72
				L662.28,848.925z"/>
			<path style="fill:#BF6079;" d="M500.237,681.151c0,0-240.67,21.063-251.619,87.52c-10.948,66.457,157.662,155.992,427.902,85.914
				l-21.745-56.622c0,0-210.739-17.624-227.284-8.014l190.979-3.496l-7.445-108.99L500.237,681.151z"/>
		</g>
		<path style="fill:none;stroke:#D5AD95;stroke-width:3;stroke-miterlimit:10;" d="M517.381,26.75
			c-1.708,8.309-6.497,15.948-13.233,21.106c-1.045,0.8-2.25,2.192-1.422,3.215c0.212,0.261,0.521,0.42,0.821,0.572
			c3.494,1.766,6.988,3.532,10.482,5.298"/>
	</g>
</g>
<g id="Layer_1">
</g>
</svg>
